<?xml version="1.0" encoding="UTF-8" standalone="no"?>
<!-- Generator: Gravit.io -->
<svg xmlns="http://www.w3.org/2000/svg" xmlns:xlink="http://www.w3.org/1999/xlink" style="isolation:isolate" viewBox="427 13.19 360 333.81" width="360pt" height="333.81pt"><defs><clipPath id="_clipPath_0292Zjm90LgZDwkVfyD11hGtSn6IZn3H"><rect x="427" y="13.19" width="360" height="333.81"/></clipPath></defs><g clip-path="url(#_clipPath_0292Zjm90LgZDwkVfyD11hGtSn6IZn3H)"><rect x="427" y="13.376" width="360" height="333.624" transform="matrix(1,0,0,1,0,0)" fill="rgb(9,83,153)"/><path d=" M 430.089 62.772 L 557.616 62.513 L 685.144 62.254 L 621.662 200.601 L 558.179 338.948 L 494.134 200.86 L 430.089 62.772 Z " fill="rgb(255,255,255)"/><path d=" M 464.376 13.755 L 557.517 13.565 L 650.657 13.376 L 604.293 114.418 L 557.928 215.461 L 511.152 114.608 L 464.376 13.755 Z " fill="rgb(9,83,153)"/><path d=" M 514.687 13.365 L 557.616 13.277 L 600.546 13.19 L 579.196 69.515 L 557.845 125.84 L 536.266 69.602 L 514.687 13.365 Z " fill="rgb(255,255,255)"/><path d=" M 630.744 301.462 L 630.744 316.79 L 605.959 316.79 L 605.959 325.052 L 630.744 325.052 L 630.744 331.978 L 605.959 331.978 L 605.959 331.978 Q 604.553 331.978 603.287 331.433 L 603.287 331.433 L 603.287 331.433 Q 602.021 330.888 601.09 329.956 L 601.09 329.956 L 601.09 329.956 Q 600.158 329.025 599.613 327.759 L 599.613 327.759 L 599.613 327.759 Q 599.068 326.493 599.068 325.052 L 599.068 325.052 L 599.068 301.462 L 599.068 301.462 Q 599.068 300.021 599.613 298.755 L 599.613 298.755 L 599.613 298.755 Q 600.158 297.489 601.09 296.558 L 601.09 296.558 L 601.09 296.558 Q 602.021 295.626 603.287 295.081 L 603.287 295.081 L 603.287 295.081 Q 604.553 294.536 605.959 294.536 L 605.959 294.536 L 623.818 294.536 L 623.818 294.536 Q 625.26 294.536 626.525 295.081 L 626.525 295.081 L 626.525 295.081 Q 627.791 295.626 628.723 296.558 L 628.723 296.558 L 628.723 296.558 Q 629.654 297.489 630.199 298.755 L 630.199 298.755 L 630.199 298.755 Q 630.744 300.021 630.744 301.462 L 630.744 301.462 L 630.744 301.462 Z  M 623.818 301.462 L 605.959 301.462 L 605.959 309.864 L 623.818 309.864 L 623.818 301.462 L 623.818 301.462 Z  M 642.275 280.122 L 649.166 280.122 L 649.166 331.978 L 642.275 331.978 L 642.275 280.122 L 642.275 280.122 Z  M 693.076 301.462 L 693.076 325.052 L 693.076 325.052 Q 693.076 326.493 692.531 327.759 L 692.531 327.759 L 692.531 327.759 Q 691.986 329.025 691.055 329.956 L 691.055 329.956 L 691.055 329.956 Q 690.123 330.888 688.875 331.433 L 688.875 331.433 L 688.875 331.433 Q 687.627 331.978 686.186 331.978 L 686.186 331.978 L 667.588 331.978 L 667.588 331.978 Q 666.182 331.978 664.916 331.433 L 664.916 331.433 L 664.916 331.433 Q 663.65 330.888 662.719 329.956 L 662.719 329.956 L 662.719 329.956 Q 661.787 329.025 661.242 327.759 L 661.242 327.759 L 661.242 327.759 Q 660.697 326.493 660.697 325.052 L 660.697 325.052 L 660.697 301.462 L 660.697 301.462 Q 660.697 300.021 661.242 298.755 L 661.242 298.755 L 661.242 298.755 Q 661.787 297.489 662.719 296.558 L 662.719 296.558 L 662.719 296.558 Q 663.65 295.626 664.916 295.081 L 664.916 295.081 L 664.916 295.081 Q 666.182 294.536 667.588 294.536 L 667.588 294.536 L 686.186 294.536 L 686.186 294.536 Q 687.627 294.536 688.875 295.081 L 688.875 295.081 L 688.875 295.081 Q 690.123 295.626 691.055 296.558 L 691.055 296.558 L 691.055 296.558 Q 691.986 297.489 692.531 298.755 L 692.531 298.755 L 692.531 298.755 Q 693.076 300.021 693.076 301.462 L 693.076 301.462 L 693.076 301.462 Z  M 686.186 301.462 L 667.588 301.462 L 667.588 325.052 L 686.186 325.052 L 686.186 301.462 L 686.186 301.462 Z  M 737.725 301.462 L 737.725 331.978 L 730.799 331.978 L 730.799 301.462 L 711.498 301.462 L 711.498 331.978 L 704.607 331.978 L 704.607 294.536 L 711.498 294.536 L 711.498 301.146 L 711.498 301.146 Q 711.568 299.775 712.131 298.562 L 712.131 298.562 L 712.131 298.562 Q 712.693 297.349 713.625 296.452 L 713.625 296.452 L 713.625 296.452 Q 714.557 295.556 715.787 295.046 L 715.787 295.046 L 715.787 295.046 Q 717.018 294.536 718.424 294.536 L 718.424 294.536 L 730.799 294.536 L 730.799 294.536 Q 732.24 294.536 733.506 295.081 L 733.506 295.081 L 733.506 295.081 Q 734.771 295.626 735.703 296.558 L 735.703 296.558 L 735.703 296.558 Q 736.635 297.489 737.18 298.755 L 737.18 298.755 L 737.18 298.755 Q 737.725 300.021 737.725 301.462 L 737.725 301.462 L 737.725 301.462 Z  M 780.932 301.462 L 780.932 316.79 L 756.146 316.79 L 756.146 325.052 L 780.932 325.052 L 780.932 331.978 L 756.146 331.978 L 756.146 331.978 Q 754.74 331.978 753.475 331.433 L 753.475 331.433 L 753.475 331.433 Q 752.209 330.888 751.277 329.956 L 751.277 329.956 L 751.277 329.956 Q 750.346 329.025 749.801 327.759 L 749.801 327.759 L 749.801 327.759 Q 749.256 326.493 749.256 325.052 L 749.256 325.052 L 749.256 301.462 L 749.256 301.462 Q 749.256 300.021 749.801 298.755 L 749.801 298.755 L 749.801 298.755 Q 750.346 297.489 751.277 296.558 L 751.277 296.558 L 751.277 296.558 Q 752.209 295.626 753.475 295.081 L 753.475 295.081 L 753.475 295.081 Q 754.74 294.536 756.146 294.536 L 756.146 294.536 L 774.006 294.536 L 774.006 294.536 Q 775.447 294.536 776.713 295.081 L 776.713 295.081 L 776.713 295.081 Q 777.979 295.626 778.91 296.558 L 778.91 296.558 L 778.91 296.558 Q 779.842 297.489 780.387 298.755 L 780.387 298.755 L 780.387 298.755 Q 780.932 300.021 780.932 301.462 L 780.932 301.462 L 780.932 301.462 Z  M 774.006 301.462 L 756.146 301.462 L 756.146 309.864 L 774.006 309.864 L 774.006 301.462 L 774.006 301.462 Z " fill="rgb(255,255,255)"/></g></svg>